<svg width="640" height="420" viewBox="0 0 640 420" fill="none" xmlns="http://www.w3.org/2000/svg">
  <rect width="640" height="420" rx="36" fill="#F4EEF9"/>
  <circle cx="500" cy="86" r="92" fill="#E4D5F0"/>
  <circle cx="138" cy="334" r="96" fill="#ECE1F5"/>
  <rect x="244" y="84" width="152" height="224" rx="44" fill="#FFFCFF"/>
  <path d="M264 157C264 120.5 293.5 91 330 91C366.5 91 396 120.5 396 157V261C396 284.7 376.7 304 353 304H307C283.3 304 264 284.7 264 261V157Z" fill="#8FB36B"/>
  <path d="M269 144C269 121.9 286.9 104 309 104H331C353.1 104 371 121.9 371 144C371 159.9 358.1 173 342.2 173H297.8C281.9 173 269 159.9 269 144Z" fill="#FFF4E4"/>
  <path d="M283 188C283 167 300 150 321 150C342 150 359 167 359 188V250C359 269.9 342.9 286 323 286H319C299.1 286 283 269.9 283 250V188Z" fill="#A8C984"/>
  <path d="M340 57C340 49.3 346.3 43 354 43C361.7 43 368 49.3 368 57V123H340V57Z" fill="#4A5369"/>
</svg>
