<svg width="640" height="420" viewBox="0 0 640 420" fill="none" xmlns="http://www.w3.org/2000/svg">
  <rect width="640" height="420" rx="36" fill="#E7F4EC"/>
  <circle cx="510" cy="90" r="86" fill="#CBEAD8"/>
  <circle cx="138" cy="330" r="92" fill="#D8F1E4"/>
  <rect x="244" y="84" width="152" height="224" rx="44" fill="#FAFFFC"/>
  <path d="M264 139C264 112.5 285.5 91 312 91H328C354.5 91 376 112.5 376 139V264C376 286.1 358.1 304 336 304H304C281.9 304 264 286.1 264 264V139Z" fill="#F1B84B"/>
  <path d="M277 173C277 153.1 293.1 137 313 137H327C346.9 137 363 153.1 363 173V248C363 267.9 346.9 284 327 284H313C293.1 284 277 267.9 277 248V173Z" fill="#F8D16C"/>
  <circle cx="208" cy="132" r="34" fill="#FF9E7A"/>
  <circle cx="438" cy="286" r="31" fill="#8AD27A"/>
  <path d="M339 57C339 49.3 345.3 43 353 43C360.7 43 367 49.3 367 57V123H339V57Z" fill="#4B5C74"/>
</svg>
