<svg width="640" height="420" viewBox="0 0 640 420" fill="none" xmlns="http://www.w3.org/2000/svg">
  <rect width="640" height="420" rx="36" fill="#F4E7D7"/>
  <circle cx="508" cy="92" r="88" fill="#E8C9A7"/>
  <circle cx="120" cy="334" r="92" fill="#EED8BC"/>
  <rect x="243" y="84" width="154" height="224" rx="44" fill="#FDF8F2"/>
  <path d="M264 135C264 110.7 283.7 91 308 91H332C356.3 91 376 110.7 376 135V266C376 287 359 304 338 304H302C281 304 264 287 264 266V135Z" fill="#C78A52"/>
  <path d="M284 165C284 148.4 297.4 135 314 135H326C342.6 135 356 148.4 356 165V254C356 270.6 342.6 284 326 284H314C297.4 284 284 270.6 284 254V165Z" fill="#D8A46F"/>
  <circle cx="300" cy="273" r="12" fill="#33231B"/>
  <circle cx="321" cy="278" r="13" fill="#3B291F"/>
  <circle cx="344" cy="272" r="11" fill="#2E2019"/>
  <path d="M342 57C342 49.3 348.3 43 356 43C363.7 43 370 49.3 370 57V123H342V57Z" fill="#3E4C62"/>
  <rect x="233" y="308" width="174" height="20" rx="10" fill="#D7B691"/>
</svg>
